<?xml version="1.0" standalone="no"?>
<!DOCTYPE svg PUBLIC "-//W3C//DTD SVG 20010904//EN"
 "http://www.w3.org/TR/2001/REC-SVG-20010904/DTD/svg10.dtd">
<svg version="1.0" xmlns="http://www.w3.org/2000/svg"
 width="133.000000pt" height="133.000000pt" viewBox="0 0 133.000000 133.000000"
 preserveAspectRatio="xMidYMid meet">

<g transform="translate(0.000000,133.000000) scale(0.100000,-0.100000)"
fill="#000000" stroke="none">
<path d="M290 1040 c-39 -39 -28 -57 130 -215 83 -82 150 -154 150 -160 0 -6
-67 -78 -150 -160 -158 -158 -169 -176 -130 -215 39 -39 57 -28 215 130 82 83
154 150 160 150 6 0 78 -67 160 -150 158 -158 176 -169 215 -130 39 39 28 57
-130 215 -82 82 -150 154 -150 160 0 6 68 78 150 160 158 158 169 176 130 215
-39 39 -57 28 -215 -130 -82 -82 -154 -150 -160 -150 -6 0 -78 68 -160 150
-158 158 -176 169 -215 130z"/>
</g>
</svg>
